# xmcd
#
# Track frame offsets: 
#        150
#        16177
#        33900
#        49890
#
# Disc length: 1095 seconds
#
# Revision: 0
# Processed by: cddbd v1.5PL3 Copyright (c) Steve Scherf et al.
# Submitted via: ExactAudioCopy v0.95a3
#
DISCID=26044504
DTITLE=ZONE - GOOD DAYS
DYEAR=2001
DGENRE=JPop
TTITLE0=GOOD DAYS
TTITLE1=fortune
TTITLE2=GOOD DAYS (Backing Tracks)
TTITLE3=fortune (Backing Tracks)
EXTD=
EXTT0=
EXTT1=
EXTT2=
EXTT3=
PLAYORDER=
